<svg width="255" height="50" viewBox="0 0 255 50" fill="none" xmlns="http://www.w3.org/2000/svg">
<rect width="255" height="50" rx="25" fill="#F5F7FA"/>
<g clip-path="url(#clip0_105_453)">
<path d="M44.3359 33.2109L39.7344 28.6094C40.875 27.2188 41.5625 25.4375 41.5625 23.4961C41.5625 19.043 37.9492 15.4297 33.4961 15.4297C29.0391 15.4297 25.4297 19.043 25.4297 23.4961C25.4297 27.9492 29.0391 31.5625 33.4961 31.5625C35.4375 31.5625 37.2148 30.8789 38.6055 29.7383L43.207 34.3359C43.5195 34.6484 44.0234 34.6484 44.3359 34.3359C44.6484 34.0273 44.6484 33.5195 44.3359 33.2109ZM33.4961 29.957C29.9297 29.957 27.0312 27.0586 27.0312 23.4961C27.0312 19.9336 29.9297 17.0312 33.4961 17.0312C37.0586 17.0312 39.9609 19.9336 39.9609 23.4961C39.9609 27.0586 37.0586 29.957 33.4961 29.957Z" fill="#718EBF"/>
</g>
<path d="M67.2869 21.8182H68.5653C68.5067 20.1722 66.9886 18.9418 64.8793 18.9418C62.7912 18.9418 61.1506 20.1562 61.1506 21.9886C61.1506 23.4588 62.2159 24.3324 63.9205 24.8224L65.2628 25.206C66.4134 25.5256 67.4361 25.9304 67.4361 27.017C67.4361 28.2102 66.2855 28.9986 64.7727 28.9986C63.473 28.9986 62.3224 28.4233 62.2159 27.1875H60.8523C60.9801 28.9773 62.429 30.1918 64.7727 30.1918C67.2869 30.1918 68.7145 28.8068 68.7145 27.0384C68.7145 24.9929 66.7756 24.3324 65.6463 24.0341L64.5384 23.7358C63.7287 23.5227 62.429 23.0966 62.429 21.9247C62.429 20.8807 63.3878 20.1136 64.8366 20.1136C66.1577 20.1136 67.1591 20.7422 67.2869 21.8182ZM74.1464 30.1705C75.8083 30.1705 77.0228 29.3395 77.4063 28.1037L76.1919 27.7628C75.8722 28.6151 75.1318 29.0412 74.1464 29.0412C72.6709 29.0412 71.6535 28.0877 71.5949 26.3352H77.5342V25.8026C77.5342 22.7557 75.7231 21.7116 74.0186 21.7116C71.8026 21.7116 70.3325 23.4588 70.3325 25.973C70.3325 28.4872 71.7813 30.1705 74.1464 30.1705ZM71.5949 25.2486C71.6801 23.9755 72.5803 22.8409 74.0186 22.8409C75.3822 22.8409 76.2558 23.8636 76.2558 25.2486H71.5949ZM81.8541 30.1918C83.2817 30.1918 84.0274 29.4247 84.2831 28.892H84.347V30H85.6041V24.6094C85.6041 22.0099 83.6226 21.7116 82.5786 21.7116C81.3428 21.7116 79.9365 22.1378 79.2973 23.6293L80.4905 24.0554C80.7675 23.4588 81.4227 22.8196 82.6212 22.8196C83.7771 22.8196 84.347 23.4322 84.347 24.4815V24.5241C84.347 25.1314 83.7291 25.0781 82.2377 25.2699C80.7195 25.467 79.0629 25.8026 79.0629 27.6776C79.0629 29.2756 80.2987 30.1918 81.8541 30.1918ZM82.0459 29.0625C81.0445 29.0625 80.32 28.6151 80.32 27.7415C80.32 26.7827 81.1936 26.4844 82.1737 26.3565C82.7064 26.2926 84.134 26.1435 84.347 25.8878V27.0384C84.347 28.0611 83.5374 29.0625 82.0459 29.0625ZM87.8986 30H89.1557V24.8224C89.1557 23.7145 90.0293 22.9048 91.2225 22.9048C91.5581 22.9048 91.9043 22.9688 91.9895 22.9901V21.7116C91.8457 21.701 91.5154 21.6903 91.329 21.6903C90.3489 21.6903 89.4966 22.2443 89.1983 23.054H89.1131V21.8182H87.8986V30ZM96.5545 30.1705C98.3656 30.1705 99.5588 29.0625 99.7718 27.6136H98.5147C98.2804 28.5085 97.5346 29.0412 96.5545 29.0412C95.063 29.0412 94.1042 27.8054 94.1042 25.9091C94.1042 24.0554 95.0843 22.8409 96.5545 22.8409C97.6625 22.8409 98.323 23.5227 98.5147 24.2685H99.7718C99.5588 22.7344 98.2591 21.7116 96.5332 21.7116C94.3173 21.7116 92.8471 23.4588 92.8471 25.9517C92.8471 28.402 94.2534 30.1705 96.5545 30.1705ZM102.867 25.0781C102.867 23.6506 103.778 22.8409 105.019 22.8409C106.201 22.8409 106.915 23.5866 106.915 24.8864V30H108.172V24.8011C108.172 22.6971 107.053 21.7116 105.381 21.7116C104.092 21.7116 103.357 22.2496 102.973 23.0966H102.867V19.0909H101.61V30H102.867V25.0781ZM118.334 21.8182H116.502V20.9872C116.502 20.1776 116.843 19.7514 117.674 19.7514C118.036 19.7514 118.249 19.8366 118.377 19.8793L118.739 18.7926C118.547 18.7074 118.164 18.5795 117.546 18.5795C116.374 18.5795 115.245 19.2827 115.245 20.6889V21.8182H113.924V22.8835H115.245V30H116.502V22.8835H118.334V21.8182ZM123.083 30.1705C125.299 30.1705 126.79 28.4872 126.79 25.9517C126.79 23.3949 125.299 21.7116 123.083 21.7116C120.867 21.7116 119.375 23.3949 119.375 25.9517C119.375 28.4872 120.867 30.1705 123.083 30.1705ZM123.083 29.0412C121.4 29.0412 120.633 27.5923 120.633 25.9517C120.633 24.3111 121.4 22.8409 123.083 22.8409C124.766 22.8409 125.533 24.3111 125.533 25.9517C125.533 27.5923 124.766 29.0412 123.083 29.0412ZM128.709 30H129.966V24.8224C129.966 23.7145 130.84 22.9048 132.033 22.9048C132.369 22.9048 132.715 22.9688 132.8 22.9901V21.7116C132.656 21.701 132.326 21.6903 132.14 21.6903C131.159 21.6903 130.307 22.2443 130.009 23.054H129.924V21.8182H128.709V30ZM144.304 23.6506C143.91 22.4893 143.026 21.7116 141.407 21.7116C139.681 21.7116 138.402 22.6918 138.402 24.0767C138.402 25.206 139.074 25.9624 140.576 26.3139L141.939 26.6335C142.765 26.8253 143.154 27.2195 143.154 27.7841C143.154 28.4872 142.408 29.0625 141.236 29.0625C140.208 29.0625 139.564 28.6204 139.34 27.7415L138.147 28.0398C138.44 29.43 139.585 30.1705 141.258 30.1705C143.159 30.1705 144.454 29.1317 144.454 27.7202C144.454 26.5803 143.74 25.8612 142.28 25.5043L141.066 25.206C140.096 24.9663 139.66 24.6413 139.66 24.0128C139.66 23.3097 140.405 22.7983 141.407 22.7983C142.504 22.7983 142.957 23.4055 143.175 23.9702L144.304 23.6506ZM149.67 30.1705C151.886 30.1705 153.377 28.4872 153.377 25.9517C153.377 23.3949 151.886 21.7116 149.67 21.7116C147.454 21.7116 145.962 23.3949 145.962 25.9517C145.962 28.4872 147.454 30.1705 149.67 30.1705ZM149.67 29.0412C147.987 29.0412 147.219 27.5923 147.219 25.9517C147.219 24.3111 147.987 22.8409 149.67 22.8409C151.353 22.8409 152.12 24.3111 152.12 25.9517C152.12 27.5923 151.353 29.0412 149.67 29.0412ZM155.296 30H156.553V24.8864C156.553 23.6879 157.427 22.8409 158.407 22.8409C159.36 22.8409 160.026 23.4641 160.026 24.3963V30H161.305V24.6733C161.305 23.6186 161.965 22.8409 163.116 22.8409C164.011 22.8409 164.778 23.315 164.778 24.5241V30H166.035V24.5241C166.035 22.6012 165.001 21.7116 163.542 21.7116C162.37 21.7116 161.512 22.2496 161.092 23.0966H161.006C160.601 22.223 159.888 21.7116 158.812 21.7116C157.746 21.7116 156.958 22.223 156.617 23.0966H156.511V21.8182H155.296V30ZM171.764 30.1705C173.426 30.1705 174.64 29.3395 175.024 28.1037L173.809 27.7628C173.489 28.6151 172.749 29.0412 171.764 29.0412C170.288 29.0412 169.271 28.0877 169.212 26.3352H175.151V25.8026C175.151 22.7557 173.34 21.7116 171.636 21.7116C169.42 21.7116 167.95 23.4588 167.95 25.973C167.95 28.4872 169.399 30.1705 171.764 30.1705ZM169.212 25.2486C169.297 23.9755 170.198 22.8409 171.636 22.8409C172.999 22.8409 173.873 23.8636 173.873 25.2486H169.212ZM180.622 21.8182H178.875V19.858H177.618V21.8182H176.382V22.8835H177.618V27.9972C177.618 29.4247 178.768 30.1065 179.834 30.1065C180.302 30.1065 180.601 30.0213 180.771 29.9574L180.515 28.8281C180.409 28.8494 180.238 28.892 179.961 28.892C179.407 28.892 178.875 28.7216 178.875 27.6562V22.8835H180.622V21.8182ZM183.946 25.0781C183.946 23.6506 184.857 22.8409 186.098 22.8409C187.28 22.8409 187.994 23.5866 187.994 24.8864V30H189.251V24.8011C189.251 22.6971 188.133 21.7116 186.46 21.7116C185.171 21.7116 184.436 22.2496 184.052 23.0966H183.946V19.0909H182.689V30H183.946V25.0781ZM191.551 30H192.808V21.8182H191.551V30ZM192.19 20.4545C192.68 20.4545 193.085 20.071 193.085 19.6023C193.085 19.1335 192.68 18.75 192.19 18.75C191.7 18.75 191.295 19.1335 191.295 19.6023C191.295 20.071 191.7 20.4545 192.19 20.4545ZM196.368 25.0781C196.368 23.6506 197.252 22.8409 198.456 22.8409C199.622 22.8409 200.331 23.6026 200.331 24.8864V30H201.588V24.8011C201.588 22.7131 200.475 21.7116 198.818 21.7116C197.582 21.7116 196.815 22.2656 196.432 23.0966H196.325V21.8182H195.111V30H196.368V25.0781ZM207.188 33.2386C209.148 33.2386 210.724 32.3438 210.724 30.2344V21.8182H209.51V23.1179H209.382C209.105 22.6918 208.594 21.7116 206.996 21.7116C204.929 21.7116 203.501 23.3523 203.501 25.8665C203.501 28.4233 204.993 29.8722 206.974 29.8722C208.572 29.8722 209.084 28.9347 209.361 28.4872H209.467V30.1491C209.467 31.5128 208.509 32.1307 207.188 32.1307C205.701 32.1307 205.179 31.3477 204.844 30.8949L203.842 31.598C204.354 32.4556 205.36 33.2386 207.188 33.2386ZM207.145 28.7429C205.568 28.7429 204.759 27.5497 204.759 25.8452C204.759 24.1832 205.547 22.8409 207.145 22.8409C208.679 22.8409 209.489 24.0767 209.489 25.8452C209.489 27.6562 208.658 28.7429 207.145 28.7429Z" fill="#8BA3CB"/>
<defs>
<clipPath id="clip0_105_453">
<rect width="20" height="20" fill="white" transform="translate(25 15)"/>
</clipPath>
</defs>
</svg>
